# xmcd CD database file
#
# Track frame offsets:
#	151
#	19221
#	40319
#	58575
#	83915
#	108300
#	128871
#	152853
#	176264
#	195876
#	201571
#
# Disc length: 2917 seconds
#
# Revision: 0
# Processed by: cddbd v1.4PL0 Copyright (c) Steve Scherf et al.
# Submitted via: CDex 1.50beta10
#
DISCID=8f0b630b
DTITLE=Sovory - Sovory
DYEAR=1996
DGENRE=Blues
TTITLE0=Soul
TTITLE1=May Be Not
TTITLE2=Did You Mean What You Said
TTITLE3=Right Back
TTITLE4=Love Is Still Enough
TTITLE5=You Sleep, I Cry
TTITLE6=Midnight Sun
TTITLE7=Time
TTITLE8=Can't Let Me Go
TTITLE9=Sky
TTITLE10=Bonus
EXTD=YEAR: 1996
EXTT0=
EXTT1=
EXTT2=
EXTT3=
EXTT4=
EXTT5=
EXTT6=
EXTT7=
EXTT8=
EXTT9=
EXTT10=
PLAYORDER=
